<mxfile host="Electron" modified="2025-05-14T13:47:41.204Z" agent="Mozilla/5.0 (Windows NT 10.0; Win64; x64) AppleWebKit/537.36 (KHTML, like Gecko) draw.io/22.0.3 Chrome/114.0.5735.289 Electron/25.8.4 Safari/537.36" etag="rkndZKaucpjRTIUrU-f8" version="22.0.3" type="device">
  <diagram name="PÃ¡gina-1" id="5NMcBoD9xluHxUGKGJME">
    <mxGraphModel dx="2262" dy="2543" grid="1" gridSize="10" guides="1" tooltips="1" connect="1" arrows="1" fold="1" page="1" pageScale="1" pageWidth="583" pageHeight="827" math="0" shadow="0">
      <root>
        <mxCell id="0" />
        <mxCell id="1" parent="0" />
        <mxCell id="fhPOaMHas8F5NW810UET-127" style="edgeStyle=orthogonalEdgeStyle;rounded=0;orthogonalLoop=1;jettySize=auto;html=1;entryX=0;entryY=0.5;entryDx=0;entryDy=0;endArrow=oval;endFill=0;strokeWidth=1;" edge="1" parent="1" source="fhPOaMHas8F5NW810UET-1" target="fhPOaMHas8F5NW810UET-8">
          <mxGeometry relative="1" as="geometry" />
        </mxCell>
        <mxCell id="fhPOaMHas8F5NW810UET-128" style="edgeStyle=orthogonalEdgeStyle;rounded=0;orthogonalLoop=1;jettySize=auto;html=1;entryX=0;entryY=0.5;entryDx=0;entryDy=0;endArrow=oval;endFill=0;strokeWidth=1;" edge="1" parent="1" source="fhPOaMHas8F5NW810UET-1" target="fhPOaMHas8F5NW810UET-7">
          <mxGeometry relative="1" as="geometry" />
        </mxCell>
        <mxCell id="fhPOaMHas8F5NW810UET-129" style="edgeStyle=orthogonalEdgeStyle;rounded=0;orthogonalLoop=1;jettySize=auto;html=1;entryX=0;entryY=0.5;entryDx=0;entryDy=0;endArrow=oval;endFill=0;strokeWidth=1;" edge="1" parent="1" source="fhPOaMHas8F5NW810UET-1" target="fhPOaMHas8F5NW810UET-4">
          <mxGeometry relative="1" as="geometry" />
        </mxCell>
        <mxCell id="fhPOaMHas8F5NW810UET-130" style="edgeStyle=orthogonalEdgeStyle;rounded=0;orthogonalLoop=1;jettySize=auto;html=1;entryX=0;entryY=0.5;entryDx=0;entryDy=0;endArrow=oval;endFill=1;strokeWidth=1;" edge="1" parent="1" source="fhPOaMHas8F5NW810UET-1" target="fhPOaMHas8F5NW810UET-3">
          <mxGeometry relative="1" as="geometry" />
        </mxCell>
        <mxCell id="fhPOaMHas8F5NW810UET-131" style="edgeStyle=orthogonalEdgeStyle;rounded=0;orthogonalLoop=1;jettySize=auto;html=1;entryX=0;entryY=0.5;entryDx=0;entryDy=0;endArrow=oval;endFill=0;strokeWidth=1;" edge="1" parent="1" source="fhPOaMHas8F5NW810UET-1" target="fhPOaMHas8F5NW810UET-5">
          <mxGeometry relative="1" as="geometry" />
        </mxCell>
        <mxCell id="fhPOaMHas8F5NW810UET-132" style="edgeStyle=orthogonalEdgeStyle;rounded=0;orthogonalLoop=1;jettySize=auto;html=1;entryX=0;entryY=0.5;entryDx=0;entryDy=0;endArrow=oval;endFill=0;strokeWidth=1;" edge="1" parent="1" source="fhPOaMHas8F5NW810UET-1" target="fhPOaMHas8F5NW810UET-6">
          <mxGeometry relative="1" as="geometry" />
        </mxCell>
        <mxCell id="fhPOaMHas8F5NW810UET-1" value="Personagem" style="whiteSpace=wrap;html=1;align=center;" vertex="1" parent="1">
          <mxGeometry x="296" y="-460" width="100" height="40" as="geometry" />
        </mxCell>
        <mxCell id="fhPOaMHas8F5NW810UET-3" value="idCharacter (PK)" style="ellipse;whiteSpace=wrap;html=1;align=left;strokeColor=none;fillColor=none;spacingLeft=10;" vertex="1" parent="1">
          <mxGeometry x="385.5" y="-790" width="118.5" height="40" as="geometry" />
        </mxCell>
        <mxCell id="fhPOaMHas8F5NW810UET-4" value="tipo" style="ellipse;whiteSpace=wrap;html=1;align=left;strokeColor=none;fillColor=none;spacingLeft=10;" vertex="1" parent="1">
          <mxGeometry x="386" y="-634" width="100" height="40" as="geometry" />
        </mxCell>
        <mxCell id="fhPOaMHas8F5NW810UET-5" value="nome" style="ellipse;whiteSpace=wrap;html=1;align=left;strokeColor=none;fillColor=none;spacingLeft=10;" vertex="1" parent="1">
          <mxGeometry x="386" y="-738" width="100" height="40" as="geometry" />
        </mxCell>
        <mxCell id="fhPOaMHas8F5NW810UET-6" value="idade" style="ellipse;whiteSpace=wrap;html=1;align=left;strokeColor=none;fillColor=none;spacingLeft=10;" vertex="1" parent="1">
          <mxGeometry x="386" y="-686" width="100" height="40" as="geometry" />
        </mxCell>
        <mxCell id="fhPOaMHas8F5NW810UET-7" value="resumo" style="ellipse;whiteSpace=wrap;html=1;align=left;strokeColor=none;fillColor=none;spacingLeft=10;" vertex="1" parent="1">
          <mxGeometry x="386" y="-582" width="100" height="40" as="geometry" />
        </mxCell>
        <mxCell id="fhPOaMHas8F5NW810UET-8" value="status" style="ellipse;whiteSpace=wrap;html=1;align=left;strokeColor=none;fillColor=none;spacingLeft=10;" vertex="1" parent="1">
          <mxGeometry x="386" y="-530" width="100" height="40" as="geometry" />
        </mxCell>
        <mxCell id="fhPOaMHas8F5NW810UET-157" style="edgeStyle=orthogonalEdgeStyle;rounded=0;orthogonalLoop=1;jettySize=auto;html=1;entryX=0;entryY=0.5;entryDx=0;entryDy=0;endArrow=oval;endFill=1;" edge="1" parent="1" source="fhPOaMHas8F5NW810UET-18" target="fhPOaMHas8F5NW810UET-25">
          <mxGeometry relative="1" as="geometry" />
        </mxCell>
        <mxCell id="fhPOaMHas8F5NW810UET-158" style="edgeStyle=orthogonalEdgeStyle;rounded=0;orthogonalLoop=1;jettySize=auto;html=1;exitX=1;exitY=0.5;exitDx=0;exitDy=0;entryX=0;entryY=0.5;entryDx=0;entryDy=0;endArrow=oval;endFill=0;" edge="1" parent="1" source="fhPOaMHas8F5NW810UET-18" target="fhPOaMHas8F5NW810UET-26">
          <mxGeometry relative="1" as="geometry" />
        </mxCell>
        <mxCell id="fhPOaMHas8F5NW810UET-159" style="edgeStyle=orthogonalEdgeStyle;rounded=0;orthogonalLoop=1;jettySize=auto;html=1;entryX=0;entryY=0.5;entryDx=0;entryDy=0;endArrow=oval;endFill=0;" edge="1" parent="1" source="fhPOaMHas8F5NW810UET-18" target="fhPOaMHas8F5NW810UET-27">
          <mxGeometry relative="1" as="geometry" />
        </mxCell>
        <mxCell id="fhPOaMHas8F5NW810UET-160" style="edgeStyle=orthogonalEdgeStyle;rounded=0;orthogonalLoop=1;jettySize=auto;html=1;entryX=0;entryY=0.5;entryDx=0;entryDy=0;endArrow=oval;endFill=0;" edge="1" parent="1" source="fhPOaMHas8F5NW810UET-18" target="fhPOaMHas8F5NW810UET-28">
          <mxGeometry relative="1" as="geometry" />
        </mxCell>
        <mxCell id="fhPOaMHas8F5NW810UET-161" style="edgeStyle=orthogonalEdgeStyle;rounded=0;orthogonalLoop=1;jettySize=auto;html=1;entryX=0;entryY=0.5;entryDx=0;entryDy=0;endArrow=oval;endFill=0;" edge="1" parent="1" source="fhPOaMHas8F5NW810UET-18" target="fhPOaMHas8F5NW810UET-32">
          <mxGeometry relative="1" as="geometry" />
        </mxCell>
        <mxCell id="fhPOaMHas8F5NW810UET-162" style="edgeStyle=orthogonalEdgeStyle;rounded=0;orthogonalLoop=1;jettySize=auto;html=1;entryX=0;entryY=0.5;entryDx=0;entryDy=0;endArrow=oval;endFill=0;" edge="1" parent="1" source="fhPOaMHas8F5NW810UET-18" target="fhPOaMHas8F5NW810UET-31">
          <mxGeometry relative="1" as="geometry" />
        </mxCell>
        <mxCell id="fhPOaMHas8F5NW810UET-163" style="edgeStyle=orthogonalEdgeStyle;rounded=0;orthogonalLoop=1;jettySize=auto;html=1;entryX=0;entryY=0.5;entryDx=0;entryDy=0;endArrow=oval;endFill=0;" edge="1" parent="1" source="fhPOaMHas8F5NW810UET-18" target="fhPOaMHas8F5NW810UET-30">
          <mxGeometry relative="1" as="geometry" />
        </mxCell>
        <mxCell id="fhPOaMHas8F5NW810UET-164" style="edgeStyle=orthogonalEdgeStyle;rounded=0;orthogonalLoop=1;jettySize=auto;html=1;entryX=0;entryY=0.5;entryDx=0;entryDy=0;endArrow=oval;endFill=0;" edge="1" parent="1" source="fhPOaMHas8F5NW810UET-18" target="fhPOaMHas8F5NW810UET-29">
          <mxGeometry relative="1" as="geometry" />
        </mxCell>
        <mxCell id="fhPOaMHas8F5NW810UET-18" value="Proficiencia" style="whiteSpace=wrap;html=1;align=center;" vertex="1" parent="1">
          <mxGeometry x="295.5" y="-47" width="100" height="40" as="geometry" />
        </mxCell>
        <mxCell id="fhPOaMHas8F5NW810UET-166" style="edgeStyle=orthogonalEdgeStyle;rounded=0;orthogonalLoop=1;jettySize=auto;html=1;entryX=0;entryY=0.5;entryDx=0;entryDy=0;endArrow=oval;endFill=1;" edge="1" parent="1" source="fhPOaMHas8F5NW810UET-19" target="fhPOaMHas8F5NW810UET-41">
          <mxGeometry relative="1" as="geometry" />
        </mxCell>
        <mxCell id="fhPOaMHas8F5NW810UET-167" style="edgeStyle=orthogonalEdgeStyle;rounded=0;orthogonalLoop=1;jettySize=auto;html=1;entryX=0;entryY=0.5;entryDx=0;entryDy=0;endArrow=oval;endFill=0;" edge="1" parent="1" source="fhPOaMHas8F5NW810UET-19" target="fhPOaMHas8F5NW810UET-43">
          <mxGeometry relative="1" as="geometry" />
        </mxCell>
        <mxCell id="fhPOaMHas8F5NW810UET-168" style="edgeStyle=orthogonalEdgeStyle;rounded=0;orthogonalLoop=1;jettySize=auto;html=1;entryX=0;entryY=0.5;entryDx=0;entryDy=0;endArrow=oval;endFill=0;" edge="1" parent="1" source="fhPOaMHas8F5NW810UET-19" target="fhPOaMHas8F5NW810UET-42">
          <mxGeometry relative="1" as="geometry" />
        </mxCell>
        <mxCell id="fhPOaMHas8F5NW810UET-19" value="Cenario" style="whiteSpace=wrap;html=1;align=center;" vertex="1" parent="1">
          <mxGeometry x="396" y="440" width="100" height="40" as="geometry" />
        </mxCell>
        <mxCell id="fhPOaMHas8F5NW810UET-169" style="edgeStyle=orthogonalEdgeStyle;rounded=0;orthogonalLoop=1;jettySize=auto;html=1;entryX=0;entryY=0.5;entryDx=0;entryDy=0;endArrow=oval;endFill=1;" edge="1" parent="1" source="fhPOaMHas8F5NW810UET-20" target="fhPOaMHas8F5NW810UET-50">
          <mxGeometry relative="1" as="geometry" />
        </mxCell>
        <mxCell id="fhPOaMHas8F5NW810UET-170" style="edgeStyle=orthogonalEdgeStyle;rounded=0;orthogonalLoop=1;jettySize=auto;html=1;entryX=0;entryY=0.5;entryDx=0;entryDy=0;endArrow=oval;endFill=0;" edge="1" parent="1" source="fhPOaMHas8F5NW810UET-20" target="fhPOaMHas8F5NW810UET-47">
          <mxGeometry relative="1" as="geometry" />
        </mxCell>
        <mxCell id="fhPOaMHas8F5NW810UET-171" style="edgeStyle=orthogonalEdgeStyle;rounded=0;orthogonalLoop=1;jettySize=auto;html=1;entryX=0;entryY=0.5;entryDx=0;entryDy=0;endArrow=oval;endFill=0;" edge="1" parent="1" source="fhPOaMHas8F5NW810UET-20" target="fhPOaMHas8F5NW810UET-48">
          <mxGeometry relative="1" as="geometry" />
        </mxCell>
        <mxCell id="fhPOaMHas8F5NW810UET-172" style="edgeStyle=orthogonalEdgeStyle;rounded=0;orthogonalLoop=1;jettySize=auto;html=1;entryX=0;entryY=0.5;entryDx=0;entryDy=0;endArrow=oval;endFill=0;" edge="1" parent="1" source="fhPOaMHas8F5NW810UET-20" target="fhPOaMHas8F5NW810UET-49">
          <mxGeometry relative="1" as="geometry" />
        </mxCell>
        <mxCell id="fhPOaMHas8F5NW810UET-20" value="Musica" style="whiteSpace=wrap;html=1;align=center;" vertex="1" parent="1">
          <mxGeometry x="616" y="610" width="100" height="40" as="geometry" />
        </mxCell>
        <mxCell id="fhPOaMHas8F5NW810UET-138" style="edgeStyle=orthogonalEdgeStyle;rounded=0;orthogonalLoop=1;jettySize=auto;html=1;entryX=0;entryY=0.5;entryDx=0;entryDy=0;endArrow=oval;endFill=1;strokeWidth=1;" edge="1" parent="1" source="fhPOaMHas8F5NW810UET-21" target="fhPOaMHas8F5NW810UET-55">
          <mxGeometry relative="1" as="geometry" />
        </mxCell>
        <mxCell id="fhPOaMHas8F5NW810UET-139" style="edgeStyle=orthogonalEdgeStyle;rounded=0;orthogonalLoop=1;jettySize=auto;html=1;entryX=0;entryY=0.5;entryDx=0;entryDy=0;endArrow=oval;endFill=0;strokeWidth=1;" edge="1" parent="1" source="fhPOaMHas8F5NW810UET-21" target="fhPOaMHas8F5NW810UET-57">
          <mxGeometry relative="1" as="geometry" />
        </mxCell>
        <mxCell id="fhPOaMHas8F5NW810UET-140" style="edgeStyle=orthogonalEdgeStyle;rounded=0;orthogonalLoop=1;jettySize=auto;html=1;entryX=0;entryY=0.5;entryDx=0;entryDy=0;endArrow=oval;endFill=0;strokeWidth=1;" edge="1" parent="1" source="fhPOaMHas8F5NW810UET-21" target="fhPOaMHas8F5NW810UET-58">
          <mxGeometry relative="1" as="geometry" />
        </mxCell>
        <mxCell id="fhPOaMHas8F5NW810UET-141" style="edgeStyle=orthogonalEdgeStyle;rounded=0;orthogonalLoop=1;jettySize=auto;html=1;entryX=0;entryY=0.5;entryDx=0;entryDy=0;endArrow=oval;endFill=0;strokeWidth=1;" edge="1" parent="1" source="fhPOaMHas8F5NW810UET-21" target="fhPOaMHas8F5NW810UET-56">
          <mxGeometry relative="1" as="geometry" />
        </mxCell>
        <mxCell id="fhPOaMHas8F5NW810UET-142" style="edgeStyle=orthogonalEdgeStyle;rounded=0;orthogonalLoop=1;jettySize=auto;html=1;entryX=0;entryY=0.5;entryDx=0;entryDy=0;endArrow=oval;endFill=0;strokeWidth=1;" edge="1" parent="1" source="fhPOaMHas8F5NW810UET-21" target="fhPOaMHas8F5NW810UET-59">
          <mxGeometry relative="1" as="geometry" />
        </mxCell>
        <mxCell id="fhPOaMHas8F5NW810UET-143" style="edgeStyle=orthogonalEdgeStyle;rounded=0;orthogonalLoop=1;jettySize=auto;html=1;entryX=0;entryY=0.5;entryDx=0;entryDy=0;endArrow=oval;endFill=0;strokeWidth=1;" edge="1" parent="1" source="fhPOaMHas8F5NW810UET-21" target="fhPOaMHas8F5NW810UET-60">
          <mxGeometry relative="1" as="geometry" />
        </mxCell>
        <mxCell id="fhPOaMHas8F5NW810UET-21" value="Evento" style="whiteSpace=wrap;html=1;align=center;" vertex="1" parent="1">
          <mxGeometry x="1204" y="-270" width="100" height="40" as="geometry" />
        </mxCell>
        <mxCell id="fhPOaMHas8F5NW810UET-133" style="edgeStyle=orthogonalEdgeStyle;rounded=0;orthogonalLoop=1;jettySize=auto;html=1;entryX=0;entryY=0.5;entryDx=0;entryDy=0;endArrow=oval;endFill=1;strokeWidth=1;" edge="1" parent="1" source="fhPOaMHas8F5NW810UET-22" target="fhPOaMHas8F5NW810UET-68">
          <mxGeometry relative="1" as="geometry" />
        </mxCell>
        <mxCell id="fhPOaMHas8F5NW810UET-134" style="edgeStyle=orthogonalEdgeStyle;rounded=0;orthogonalLoop=1;jettySize=auto;html=1;entryX=0;entryY=0.5;entryDx=0;entryDy=0;endArrow=oval;endFill=0;strokeWidth=1;" edge="1" parent="1" source="fhPOaMHas8F5NW810UET-22" target="fhPOaMHas8F5NW810UET-71">
          <mxGeometry relative="1" as="geometry" />
        </mxCell>
        <mxCell id="fhPOaMHas8F5NW810UET-135" style="edgeStyle=orthogonalEdgeStyle;rounded=0;orthogonalLoop=1;jettySize=auto;html=1;entryX=0;entryY=0.5;entryDx=0;entryDy=0;endArrow=oval;endFill=0;strokeWidth=1;" edge="1" parent="1" source="fhPOaMHas8F5NW810UET-22" target="fhPOaMHas8F5NW810UET-67">
          <mxGeometry relative="1" as="geometry" />
        </mxCell>
        <mxCell id="fhPOaMHas8F5NW810UET-136" style="edgeStyle=orthogonalEdgeStyle;rounded=0;orthogonalLoop=1;jettySize=auto;html=1;entryX=0;entryY=0.5;entryDx=0;entryDy=0;endArrow=oval;endFill=0;strokeWidth=1;" edge="1" parent="1" source="fhPOaMHas8F5NW810UET-22" target="fhPOaMHas8F5NW810UET-70">
          <mxGeometry relative="1" as="geometry" />
        </mxCell>
        <mxCell id="fhPOaMHas8F5NW810UET-137" style="edgeStyle=orthogonalEdgeStyle;rounded=0;orthogonalLoop=1;jettySize=auto;html=1;entryX=0;entryY=0.5;entryDx=0;entryDy=0;endArrow=oval;endFill=0;strokeWidth=1;" edge="1" parent="1" source="fhPOaMHas8F5NW810UET-22" target="fhPOaMHas8F5NW810UET-69">
          <mxGeometry relative="1" as="geometry" />
        </mxCell>
        <mxCell id="fhPOaMHas8F5NW810UET-22" value="Dialogo" style="whiteSpace=wrap;html=1;align=center;" vertex="1" parent="1">
          <mxGeometry x="887" y="-460" width="100" height="40" as="geometry" />
        </mxCell>
        <mxCell id="fhPOaMHas8F5NW810UET-148" style="edgeStyle=orthogonalEdgeStyle;rounded=0;orthogonalLoop=1;jettySize=auto;html=1;entryX=0;entryY=0.5;entryDx=0;entryDy=0;endArrow=oval;endFill=0;" edge="1" parent="1" source="fhPOaMHas8F5NW810UET-23" target="fhPOaMHas8F5NW810UET-89">
          <mxGeometry relative="1" as="geometry" />
        </mxCell>
        <mxCell id="fhPOaMHas8F5NW810UET-149" style="edgeStyle=orthogonalEdgeStyle;rounded=0;orthogonalLoop=1;jettySize=auto;html=1;entryX=0;entryY=0.5;entryDx=0;entryDy=0;endArrow=oval;endFill=1;" edge="1" parent="1" source="fhPOaMHas8F5NW810UET-23" target="fhPOaMHas8F5NW810UET-88">
          <mxGeometry relative="1" as="geometry" />
        </mxCell>
        <mxCell id="fhPOaMHas8F5NW810UET-23" value="Iventario" style="whiteSpace=wrap;html=1;align=center;" vertex="1" parent="1">
          <mxGeometry x="888" y="-64" width="100" height="40" as="geometry" />
        </mxCell>
        <mxCell id="fhPOaMHas8F5NW810UET-150" style="edgeStyle=orthogonalEdgeStyle;rounded=0;orthogonalLoop=1;jettySize=auto;html=1;entryX=0;entryY=0.5;entryDx=0;entryDy=0;endArrow=oval;endFill=1;" edge="1" parent="1" source="fhPOaMHas8F5NW810UET-24" target="fhPOaMHas8F5NW810UET-79">
          <mxGeometry relative="1" as="geometry" />
        </mxCell>
        <mxCell id="fhPOaMHas8F5NW810UET-151" style="edgeStyle=orthogonalEdgeStyle;rounded=0;orthogonalLoop=1;jettySize=auto;html=1;entryX=0;entryY=0.5;entryDx=0;entryDy=0;endArrow=oval;endFill=0;" edge="1" parent="1" source="fhPOaMHas8F5NW810UET-24" target="fhPOaMHas8F5NW810UET-82">
          <mxGeometry relative="1" as="geometry" />
        </mxCell>
        <mxCell id="fhPOaMHas8F5NW810UET-152" style="edgeStyle=orthogonalEdgeStyle;rounded=0;orthogonalLoop=1;jettySize=auto;html=1;entryX=0;entryY=0.5;entryDx=0;entryDy=0;endArrow=oval;endFill=0;" edge="1" parent="1" source="fhPOaMHas8F5NW810UET-24" target="fhPOaMHas8F5NW810UET-80">
          <mxGeometry relative="1" as="geometry" />
        </mxCell>
        <mxCell id="fhPOaMHas8F5NW810UET-153" style="edgeStyle=orthogonalEdgeStyle;rounded=0;orthogonalLoop=1;jettySize=auto;html=1;entryX=0;entryY=0.5;entryDx=0;entryDy=0;endArrow=oval;endFill=0;" edge="1" parent="1" source="fhPOaMHas8F5NW810UET-24" target="fhPOaMHas8F5NW810UET-78">
          <mxGeometry relative="1" as="geometry" />
        </mxCell>
        <mxCell id="fhPOaMHas8F5NW810UET-154" style="edgeStyle=orthogonalEdgeStyle;rounded=0;orthogonalLoop=1;jettySize=auto;html=1;entryX=0;entryY=0.5;entryDx=0;entryDy=0;endArrow=oval;endFill=0;" edge="1" parent="1" source="fhPOaMHas8F5NW810UET-24" target="fhPOaMHas8F5NW810UET-81">
          <mxGeometry relative="1" as="geometry" />
        </mxCell>
        <mxCell id="fhPOaMHas8F5NW810UET-24" value="Item" style="whiteSpace=wrap;html=1;align=center;" vertex="1" parent="1">
          <mxGeometry x="887" y="236" width="100" height="40" as="geometry" />
        </mxCell>
        <mxCell id="fhPOaMHas8F5NW810UET-25" value="idRecord (PK)" style="ellipse;whiteSpace=wrap;html=1;align=left;strokeColor=none;fillColor=none;spacingLeft=10;flipV=1;" vertex="1" parent="1">
          <mxGeometry x="474" y="-47" width="100" height="40" as="geometry" />
        </mxCell>
        <mxCell id="fhPOaMHas8F5NW810UET-26" value="idCharacter (FK)" style="ellipse;whiteSpace=wrap;html=1;align=left;strokeColor=none;fillColor=none;spacingLeft=10;flipV=1;" vertex="1" parent="1">
          <mxGeometry x="474" y="5" width="120" height="40" as="geometry" />
        </mxCell>
        <mxCell id="fhPOaMHas8F5NW810UET-27" value="for" style="ellipse;whiteSpace=wrap;html=1;align=left;strokeColor=none;fillColor=none;spacingLeft=10;flipV=1;" vertex="1" parent="1">
          <mxGeometry x="474" y="57" width="100" height="40" as="geometry" />
        </mxCell>
        <mxCell id="fhPOaMHas8F5NW810UET-28" value="cons" style="ellipse;whiteSpace=wrap;html=1;align=left;strokeColor=none;fillColor=none;spacingLeft=10;flipV=1;" vertex="1" parent="1">
          <mxGeometry x="474" y="109" width="100" height="40" as="geometry" />
        </mxCell>
        <mxCell id="fhPOaMHas8F5NW810UET-29" value="inte" style="ellipse;whiteSpace=wrap;html=1;align=left;strokeColor=none;fillColor=none;spacingLeft=10;flipV=1;" vertex="1" parent="1">
          <mxGeometry x="474" y="317" width="100" height="40" as="geometry" />
        </mxCell>
        <mxCell id="fhPOaMHas8F5NW810UET-30" value="sab" style="ellipse;whiteSpace=wrap;html=1;align=left;strokeColor=none;fillColor=none;spacingLeft=10;flipV=1;" vertex="1" parent="1">
          <mxGeometry x="474" y="265" width="100" height="40" as="geometry" />
        </mxCell>
        <mxCell id="fhPOaMHas8F5NW810UET-31" value="car" style="ellipse;whiteSpace=wrap;html=1;align=left;strokeColor=none;fillColor=none;spacingLeft=10;flipV=1;" vertex="1" parent="1">
          <mxGeometry x="474" y="213" width="100" height="40" as="geometry" />
        </mxCell>
        <mxCell id="fhPOaMHas8F5NW810UET-32" value="des" style="ellipse;whiteSpace=wrap;html=1;align=left;strokeColor=none;fillColor=none;spacingLeft=10;flipV=1;" vertex="1" parent="1">
          <mxGeometry x="474" y="161" width="100" height="40" as="geometry" />
        </mxCell>
        <mxCell id="fhPOaMHas8F5NW810UET-41" value="idScenario (PK)" style="ellipse;whiteSpace=wrap;html=1;align=left;flipV=0;fillColor=none;strokeColor=none;spacingLeft=10;" vertex="1" parent="1">
          <mxGeometry x="574.5" y="440" width="100" height="40" as="geometry" />
        </mxCell>
        <mxCell id="fhPOaMHas8F5NW810UET-42" value="descricao" style="ellipse;whiteSpace=wrap;html=1;align=left;flipV=0;fillColor=none;strokeColor=none;spacingLeft=10;" vertex="1" parent="1">
          <mxGeometry x="574.5" y="550" width="100" height="40" as="geometry" />
        </mxCell>
        <mxCell id="fhPOaMHas8F5NW810UET-43" value="nome" style="ellipse;whiteSpace=wrap;html=1;align=left;flipV=0;fillColor=none;strokeColor=none;spacingLeft=10;" vertex="1" parent="1">
          <mxGeometry x="574.5" y="495" width="100" height="40" as="geometry" />
        </mxCell>
        <mxCell id="fhPOaMHas8F5NW810UET-47" value="duracao" style="ellipse;whiteSpace=wrap;html=1;align=left;fillColor=none;strokeColor=none;spacingLeft=10;" vertex="1" parent="1">
          <mxGeometry x="817" y="663" width="100" height="40" as="geometry" />
        </mxCell>
        <mxCell id="fhPOaMHas8F5NW810UET-48" value="tema" style="ellipse;whiteSpace=wrap;html=1;align=left;fillColor=none;strokeColor=none;spacingLeft=10;" vertex="1" parent="1">
          <mxGeometry x="817" y="717" width="100" height="40" as="geometry" />
        </mxCell>
        <mxCell id="fhPOaMHas8F5NW810UET-49" value="idScenario (FK)" style="ellipse;whiteSpace=wrap;html=1;align=left;fillColor=none;strokeColor=none;spacingLeft=10;" vertex="1" parent="1">
          <mxGeometry x="817" y="770" width="100" height="40" as="geometry" />
        </mxCell>
        <mxCell id="fhPOaMHas8F5NW810UET-50" value="idMusic (PK)" style="ellipse;whiteSpace=wrap;html=1;align=left;fillColor=none;strokeColor=none;spacingLeft=10;" vertex="1" parent="1">
          <mxGeometry x="817" y="610" width="100" height="40" as="geometry" />
        </mxCell>
        <mxCell id="fhPOaMHas8F5NW810UET-55" value="idEvent (PK)" style="ellipse;whiteSpace=wrap;html=1;align=left;fillColor=none;strokeColor=none;spacingLeft=10;" vertex="1" parent="1">
          <mxGeometry x="1364" y="-270" width="100" height="40" as="geometry" />
        </mxCell>
        <mxCell id="fhPOaMHas8F5NW810UET-56" value="tipo" style="ellipse;whiteSpace=wrap;html=1;align=left;fillColor=none;strokeColor=none;spacingLeft=10;" vertex="1" parent="1">
          <mxGeometry x="1364" y="-96" width="100" height="40" as="geometry" />
        </mxCell>
        <mxCell id="fhPOaMHas8F5NW810UET-57" value="nome" style="ellipse;whiteSpace=wrap;html=1;align=left;fillColor=none;strokeColor=none;spacingLeft=10;" vertex="1" parent="1">
          <mxGeometry x="1364" y="-212" width="100" height="40" as="geometry" />
        </mxCell>
        <mxCell id="fhPOaMHas8F5NW810UET-58" value="descricao" style="ellipse;whiteSpace=wrap;html=1;align=left;fillColor=none;strokeColor=none;spacingLeft=10;" vertex="1" parent="1">
          <mxGeometry x="1364" y="-154" width="100" height="40" as="geometry" />
        </mxCell>
        <mxCell id="fhPOaMHas8F5NW810UET-59" value="condicao" style="ellipse;whiteSpace=wrap;html=1;align=left;fillColor=none;strokeColor=none;spacingLeft=10;" vertex="1" parent="1">
          <mxGeometry x="1364" y="-38" width="100" height="40" as="geometry" />
        </mxCell>
        <mxCell id="fhPOaMHas8F5NW810UET-60" value="status" style="ellipse;whiteSpace=wrap;html=1;align=left;fillColor=none;strokeColor=none;spacingLeft=10;" vertex="1" parent="1">
          <mxGeometry x="1364" y="20" width="100" height="40" as="geometry" />
        </mxCell>
        <mxCell id="fhPOaMHas8F5NW810UET-67" value="idEvent (FK)" style="ellipse;whiteSpace=wrap;html=1;align=left;spacingLeft=10;fontColor=default;strokeColor=none;fillColor=none;" vertex="1" parent="1">
          <mxGeometry x="986" y="-634" width="100" height="40" as="geometry" />
        </mxCell>
        <mxCell id="fhPOaMHas8F5NW810UET-68" value="idSpeech (PK)" style="ellipse;whiteSpace=wrap;html=1;align=left;spacingLeft=10;fontColor=default;strokeColor=none;fillColor=none;" vertex="1" parent="1">
          <mxGeometry x="986" y="-739" width="100" height="40" as="geometry" />
        </mxCell>
        <mxCell id="fhPOaMHas8F5NW810UET-69" value="condicao" style="ellipse;whiteSpace=wrap;html=1;align=left;spacingLeft=10;fontColor=default;strokeColor=none;fillColor=none;" vertex="1" parent="1">
          <mxGeometry x="987" y="-529" width="100" height="40" as="geometry" />
        </mxCell>
        <mxCell id="fhPOaMHas8F5NW810UET-70" value="texto" style="ellipse;whiteSpace=wrap;html=1;align=left;spacingLeft=10;fontColor=default;strokeColor=none;fillColor=none;" vertex="1" parent="1">
          <mxGeometry x="986" y="-582" width="100" height="40" as="geometry" />
        </mxCell>
        <mxCell id="fhPOaMHas8F5NW810UET-71" value="idCharacter (FK)" style="ellipse;whiteSpace=wrap;html=1;align=left;spacingLeft=10;fontColor=default;strokeColor=none;fillColor=none;" vertex="1" parent="1">
          <mxGeometry x="986" y="-687" width="128" height="40" as="geometry" />
        </mxCell>
        <mxCell id="fhPOaMHas8F5NW810UET-78" value="descricao" style="ellipse;whiteSpace=wrap;html=1;align=left;strokeColor=none;fillColor=none;spacingLeft=10;" vertex="1" parent="1">
          <mxGeometry x="986" y="457" width="100" height="40" as="geometry" />
        </mxCell>
        <mxCell id="fhPOaMHas8F5NW810UET-79" value="idItem (PK)" style="ellipse;whiteSpace=wrap;html=1;align=left;strokeColor=none;fillColor=none;spacingLeft=10;" vertex="1" parent="1">
          <mxGeometry x="986" y="307" width="100" height="40" as="geometry" />
        </mxCell>
        <mxCell id="fhPOaMHas8F5NW810UET-80" value="consumivel" style="ellipse;whiteSpace=wrap;html=1;align=left;strokeColor=none;fillColor=none;spacingLeft=10;" vertex="1" parent="1">
          <mxGeometry x="986" y="407" width="100" height="40" as="geometry" />
        </mxCell>
        <mxCell id="fhPOaMHas8F5NW810UET-81" value="efeito" style="ellipse;whiteSpace=wrap;html=1;align=left;strokeColor=none;fillColor=none;spacingLeft=10;" vertex="1" parent="1">
          <mxGeometry x="986" y="507" width="100" height="40" as="geometry" />
        </mxCell>
        <mxCell id="fhPOaMHas8F5NW810UET-82" value="nome" style="ellipse;whiteSpace=wrap;html=1;align=left;strokeColor=none;fillColor=none;spacingLeft=10;" vertex="1" parent="1">
          <mxGeometry x="986" y="357" width="100" height="40" as="geometry" />
        </mxCell>
        <mxCell id="fhPOaMHas8F5NW810UET-88" value="idIventory (PK)" style="ellipse;whiteSpace=wrap;html=1;align=left;strokeColor=none;fillColor=none;spacingLeft=10;" vertex="1" parent="1">
          <mxGeometry x="1047" y="-114" width="100" height="40" as="geometry" />
        </mxCell>
        <mxCell id="fhPOaMHas8F5NW810UET-89" value="idCharacter (FK)" style="ellipse;whiteSpace=wrap;html=1;align=left;strokeColor=none;fillColor=none;spacingLeft=10;" vertex="1" parent="1">
          <mxGeometry x="1047" y="-65" width="117" height="40" as="geometry" />
        </mxCell>
        <mxCell id="fhPOaMHas8F5NW810UET-90" value="idIventory (FK)" style="ellipse;whiteSpace=wrap;html=1;align=left;flipV=0;fillColor=none;strokeColor=none;spacingLeft=10;" vertex="1" parent="1">
          <mxGeometry x="1064" y="31" width="100" height="40" as="geometry" />
        </mxCell>
        <mxCell id="fhPOaMHas8F5NW810UET-145" style="edgeStyle=orthogonalEdgeStyle;rounded=0;orthogonalLoop=1;jettySize=auto;html=1;entryX=0;entryY=0.5;entryDx=0;entryDy=0;strokeWidth=1;endArrow=oval;endFill=0;" edge="1" parent="1" source="fhPOaMHas8F5NW810UET-94" target="fhPOaMHas8F5NW810UET-90">
          <mxGeometry relative="1" as="geometry" />
        </mxCell>
        <mxCell id="fhPOaMHas8F5NW810UET-146" style="edgeStyle=orthogonalEdgeStyle;rounded=0;orthogonalLoop=1;jettySize=auto;html=1;entryX=0;entryY=0.5;entryDx=0;entryDy=0;strokeWidth=1;endArrow=oval;endFill=0;" edge="1" parent="1" source="fhPOaMHas8F5NW810UET-94" target="fhPOaMHas8F5NW810UET-123">
          <mxGeometry relative="1" as="geometry" />
        </mxCell>
        <mxCell id="fhPOaMHas8F5NW810UET-147" style="edgeStyle=orthogonalEdgeStyle;rounded=0;orthogonalLoop=1;jettySize=auto;html=1;entryX=0;entryY=0.5;entryDx=0;entryDy=0;strokeWidth=1;endArrow=oval;endFill=0;" edge="1" parent="1" source="fhPOaMHas8F5NW810UET-94" target="fhPOaMHas8F5NW810UET-124">
          <mxGeometry relative="1" as="geometry" />
        </mxCell>
        <mxCell id="fhPOaMHas8F5NW810UET-94" value="Possui" style="shape=rhombus;perimeter=rhombusPerimeter;whiteSpace=wrap;html=1;align=center;" vertex="1" parent="1">
          <mxGeometry x="877" y="76" width="120" height="60" as="geometry" />
        </mxCell>
        <mxCell id="fhPOaMHas8F5NW810UET-95" value="Pertence" style="shape=rhombus;perimeter=rhombusPerimeter;whiteSpace=wrap;html=1;align=center;" vertex="1" parent="1">
          <mxGeometry x="1194" y="-470" width="120" height="60" as="geometry" />
        </mxCell>
        <mxCell id="fhPOaMHas8F5NW810UET-96" value="Possui" style="shape=rhombus;perimeter=rhombusPerimeter;whiteSpace=wrap;html=1;align=center;" vertex="1" parent="1">
          <mxGeometry x="584" y="-470" width="120" height="60" as="geometry" />
        </mxCell>
        <mxCell id="fhPOaMHas8F5NW810UET-97" value="Possui" style="shape=rhombus;perimeter=rhombusPerimeter;whiteSpace=wrap;html=1;align=center;" vertex="1" parent="1">
          <mxGeometry x="286" y="-241" width="120" height="60" as="geometry" />
        </mxCell>
        <mxCell id="fhPOaMHas8F5NW810UET-98" value="Possui" style="shape=rhombus;perimeter=rhombusPerimeter;whiteSpace=wrap;html=1;align=center;" vertex="1" parent="1">
          <mxGeometry x="386" y="600" width="120" height="60" as="geometry" />
        </mxCell>
        <mxCell id="fhPOaMHas8F5NW810UET-99" value="" style="endArrow=none;html=1;rounded=0;" edge="1" parent="1" source="fhPOaMHas8F5NW810UET-95" target="fhPOaMHas8F5NW810UET-21">
          <mxGeometry relative="1" as="geometry">
            <mxPoint x="830" y="-386" as="sourcePoint" />
            <mxPoint x="899" y="-420" as="targetPoint" />
          </mxGeometry>
        </mxCell>
        <mxCell id="fhPOaMHas8F5NW810UET-101" value="&lt;font style=&quot;font-size: 16px;&quot;&gt;1&lt;/font&gt;" style="edgeLabel;html=1;align=center;verticalAlign=middle;resizable=0;points=[];labelBackgroundColor=none;spacingTop=58;spacingRight=-5;" vertex="1" connectable="0" parent="fhPOaMHas8F5NW810UET-99">
          <mxGeometry x="-0.5791" y="4" relative="1" as="geometry">
            <mxPoint as="offset" />
          </mxGeometry>
        </mxCell>
        <mxCell id="fhPOaMHas8F5NW810UET-100" value="" style="endArrow=none;html=1;rounded=0;" edge="1" parent="1" source="fhPOaMHas8F5NW810UET-22" target="fhPOaMHas8F5NW810UET-95">
          <mxGeometry relative="1" as="geometry">
            <mxPoint x="840" y="-376" as="sourcePoint" />
            <mxPoint x="909" y="-410" as="targetPoint" />
          </mxGeometry>
        </mxCell>
        <mxCell id="fhPOaMHas8F5NW810UET-102" value="&lt;font style=&quot;font-size: 16px;&quot;&gt;M&lt;/font&gt;" style="edgeLabel;html=1;align=center;verticalAlign=middle;resizable=0;points=[];labelBackgroundColor=none;spacingTop=-18;" vertex="1" connectable="0" parent="fhPOaMHas8F5NW810UET-100">
          <mxGeometry x="-0.0952" y="2" relative="1" as="geometry">
            <mxPoint as="offset" />
          </mxGeometry>
        </mxCell>
        <mxCell id="fhPOaMHas8F5NW810UET-103" value="1" style="endArrow=none;html=1;rounded=0;labelBackgroundColor=none;fontSize=16;spacingTop=-20;" edge="1" parent="1" source="fhPOaMHas8F5NW810UET-96" target="fhPOaMHas8F5NW810UET-1">
          <mxGeometry x="0.0048" relative="1" as="geometry">
            <mxPoint x="465" y="-376" as="sourcePoint" />
            <mxPoint x="396" y="-410" as="targetPoint" />
            <mxPoint as="offset" />
          </mxGeometry>
        </mxCell>
        <mxCell id="fhPOaMHas8F5NW810UET-104" value="" style="endArrow=none;html=1;rounded=0;" edge="1" parent="1" source="fhPOaMHas8F5NW810UET-22" target="fhPOaMHas8F5NW810UET-96">
          <mxGeometry relative="1" as="geometry">
            <mxPoint x="475" y="-366" as="sourcePoint" />
            <mxPoint x="406" y="-400" as="targetPoint" />
          </mxGeometry>
        </mxCell>
        <mxCell id="fhPOaMHas8F5NW810UET-105" value="M" style="edgeLabel;html=1;align=center;verticalAlign=middle;resizable=0;points=[];fontSize=16;labelBackgroundColor=none;spacingTop=-23;" vertex="1" connectable="0" parent="fhPOaMHas8F5NW810UET-104">
          <mxGeometry x="-0.0003" relative="1" as="geometry">
            <mxPoint as="offset" />
          </mxGeometry>
        </mxCell>
        <mxCell id="fhPOaMHas8F5NW810UET-106" value="" style="endArrow=none;html=1;rounded=0;" edge="1" parent="1" source="fhPOaMHas8F5NW810UET-97" target="fhPOaMHas8F5NW810UET-1">
          <mxGeometry relative="1" as="geometry">
            <mxPoint x="296" y="-316" as="sourcePoint" />
            <mxPoint x="346" y="-410" as="targetPoint" />
          </mxGeometry>
        </mxCell>
        <mxCell id="fhPOaMHas8F5NW810UET-108" value="1" style="edgeLabel;html=1;align=center;verticalAlign=middle;resizable=0;points=[];fontSize=16;labelBackgroundColor=none;spacingRight=14;" vertex="1" connectable="0" parent="fhPOaMHas8F5NW810UET-106">
          <mxGeometry x="-0.6008" relative="1" as="geometry">
            <mxPoint y="1" as="offset" />
          </mxGeometry>
        </mxCell>
        <mxCell id="fhPOaMHas8F5NW810UET-107" value="" style="endArrow=none;html=1;rounded=0;" edge="1" parent="1" source="fhPOaMHas8F5NW810UET-18" target="fhPOaMHas8F5NW810UET-97">
          <mxGeometry relative="1" as="geometry">
            <mxPoint x="306" y="-306" as="sourcePoint" />
            <mxPoint x="356" y="-400" as="targetPoint" />
          </mxGeometry>
        </mxCell>
        <mxCell id="fhPOaMHas8F5NW810UET-109" value="1" style="edgeLabel;html=1;align=center;verticalAlign=middle;resizable=0;points=[];fontSize=16;labelBackgroundColor=none;spacingRight=14;" vertex="1" connectable="0" parent="fhPOaMHas8F5NW810UET-107">
          <mxGeometry x="0.0132" y="1" relative="1" as="geometry">
            <mxPoint y="-1" as="offset" />
          </mxGeometry>
        </mxCell>
        <mxCell id="fhPOaMHas8F5NW810UET-110" value="" style="endArrow=none;html=1;rounded=0;" edge="1" parent="1" source="fhPOaMHas8F5NW810UET-98" target="fhPOaMHas8F5NW810UET-19">
          <mxGeometry relative="1" as="geometry">
            <mxPoint x="475" y="433" as="sourcePoint" />
            <mxPoint x="517" y="343" as="targetPoint" />
          </mxGeometry>
        </mxCell>
        <mxCell id="fhPOaMHas8F5NW810UET-112" value="M" style="edgeLabel;html=1;align=center;verticalAlign=middle;resizable=0;points=[];fontSize=16;labelBackgroundColor=none;spacingBottom=0;spacingRight=-16;" vertex="1" connectable="0" parent="fhPOaMHas8F5NW810UET-110">
          <mxGeometry x="-0.0757" y="-1" relative="1" as="geometry">
            <mxPoint as="offset" />
          </mxGeometry>
        </mxCell>
        <mxCell id="fhPOaMHas8F5NW810UET-111" value="" style="endArrow=none;html=1;rounded=0;" edge="1" parent="1" source="fhPOaMHas8F5NW810UET-98" target="fhPOaMHas8F5NW810UET-20">
          <mxGeometry relative="1" as="geometry">
            <mxPoint x="485" y="443" as="sourcePoint" />
            <mxPoint x="527" y="353" as="targetPoint" />
          </mxGeometry>
        </mxCell>
        <mxCell id="fhPOaMHas8F5NW810UET-113" value="M" style="edgeLabel;html=1;align=center;verticalAlign=middle;resizable=0;points=[];fontSize=16;labelBackgroundColor=none;spacingBottom=29;" vertex="1" connectable="0" parent="fhPOaMHas8F5NW810UET-111">
          <mxGeometry x="-0.0591" y="-4" relative="1" as="geometry">
            <mxPoint x="1" as="offset" />
          </mxGeometry>
        </mxCell>
        <mxCell id="fhPOaMHas8F5NW810UET-114" value="" style="endArrow=none;html=1;rounded=0;" edge="1" parent="1" source="fhPOaMHas8F5NW810UET-24" target="fhPOaMHas8F5NW810UET-94">
          <mxGeometry relative="1" as="geometry">
            <mxPoint x="466" y="6" as="sourcePoint" />
            <mxPoint x="407" y="6" as="targetPoint" />
          </mxGeometry>
        </mxCell>
        <mxCell id="fhPOaMHas8F5NW810UET-122" value="M" style="edgeLabel;html=1;align=center;verticalAlign=middle;resizable=0;points=[];fontSize=16;labelBackgroundColor=none;spacingTop=1;spacingRight=18;" vertex="1" connectable="0" parent="fhPOaMHas8F5NW810UET-114">
          <mxGeometry x="0.1164" y="2" relative="1" as="geometry">
            <mxPoint y="1" as="offset" />
          </mxGeometry>
        </mxCell>
        <mxCell id="fhPOaMHas8F5NW810UET-115" value="" style="endArrow=none;html=1;rounded=0;" edge="1" parent="1" source="fhPOaMHas8F5NW810UET-94" target="fhPOaMHas8F5NW810UET-23">
          <mxGeometry relative="1" as="geometry">
            <mxPoint x="476" y="16" as="sourcePoint" />
            <mxPoint x="417" y="16" as="targetPoint" />
          </mxGeometry>
        </mxCell>
        <mxCell id="fhPOaMHas8F5NW810UET-121" value="1" style="edgeLabel;html=1;align=center;verticalAlign=middle;resizable=0;points=[];fontSize=16;spacingRight=10;labelBackgroundColor=none;" vertex="1" connectable="0" parent="fhPOaMHas8F5NW810UET-115">
          <mxGeometry x="-0.0648" y="3" relative="1" as="geometry">
            <mxPoint as="offset" />
          </mxGeometry>
        </mxCell>
        <mxCell id="fhPOaMHas8F5NW810UET-116" value="Possui" style="shape=rhombus;perimeter=rhombusPerimeter;whiteSpace=wrap;html=1;align=center;" vertex="1" parent="1">
          <mxGeometry x="615.5" y="-241" width="120" height="60" as="geometry" />
        </mxCell>
        <mxCell id="fhPOaMHas8F5NW810UET-117" value="" style="endArrow=none;html=1;rounded=0;" edge="1" parent="1" source="fhPOaMHas8F5NW810UET-116" target="fhPOaMHas8F5NW810UET-1">
          <mxGeometry relative="1" as="geometry">
            <mxPoint x="946" y="280" as="sourcePoint" />
            <mxPoint x="947" y="180" as="targetPoint" />
          </mxGeometry>
        </mxCell>
        <mxCell id="fhPOaMHas8F5NW810UET-119" value="1" style="edgeLabel;html=1;align=center;verticalAlign=middle;resizable=0;points=[];fontSize=16;labelBackgroundColor=none;spacingTop=-44;spacingRight=80;" vertex="1" connectable="0" parent="fhPOaMHas8F5NW810UET-117">
          <mxGeometry x="-0.271" y="4" relative="1" as="geometry">
            <mxPoint x="-1" y="-1" as="offset" />
          </mxGeometry>
        </mxCell>
        <mxCell id="fhPOaMHas8F5NW810UET-118" value="" style="endArrow=none;html=1;rounded=0;" edge="1" parent="1" source="fhPOaMHas8F5NW810UET-23" target="fhPOaMHas8F5NW810UET-116">
          <mxGeometry relative="1" as="geometry">
            <mxPoint x="956" y="290" as="sourcePoint" />
            <mxPoint x="957" y="190" as="targetPoint" />
          </mxGeometry>
        </mxCell>
        <mxCell id="fhPOaMHas8F5NW810UET-120" value="1" style="edgeLabel;html=1;align=center;verticalAlign=middle;resizable=0;points=[];fontSize=16;labelBackgroundColor=none;spacingTop=11;spacingRight=8;" vertex="1" connectable="0" parent="fhPOaMHas8F5NW810UET-118">
          <mxGeometry x="0.0944" y="2" relative="1" as="geometry">
            <mxPoint as="offset" />
          </mxGeometry>
        </mxCell>
        <mxCell id="fhPOaMHas8F5NW810UET-123" value="idItem (FK)" style="ellipse;whiteSpace=wrap;html=1;align=left;flipV=0;fillColor=none;strokeColor=none;spacingLeft=10;" vertex="1" parent="1">
          <mxGeometry x="1064" y="85" width="100" height="40" as="geometry" />
        </mxCell>
        <mxCell id="fhPOaMHas8F5NW810UET-124" value="qtdItens" style="ellipse;whiteSpace=wrap;html=1;align=left;flipV=0;fillColor=none;strokeColor=none;spacingLeft=10;" vertex="1" parent="1">
          <mxGeometry x="1064" y="141" width="100" height="40" as="geometry" />
        </mxCell>
      </root>
    </mxGraphModel>
  </diagram>
</mxfile>
